<?xml version="1.0" encoding="utf-8"?>
<!-- Generator: Adobe Illustrator 22.0.1, SVG Export Plug-In . SVG Version: 6.00 Build 0)  -->
<svg version="1.1" id="Layer_1" xmlns="http://www.w3.org/2000/svg" xmlns:xlink="http://www.w3.org/1999/xlink" x="0px" y="0px"
	 viewBox="0 0 113 9.2" style="enable-background:new 0 0 113 9.2;" xml:space="preserve">
<style type="text/css">
	.st0{fill:#FFFFFF;}
	.st1{fill:#6625FB;}
	.st2{fill:#8525FB;}
	.st3{fill:#FA8224;}
	.st4{fill:#FA7222;}
</style>
<path class="st0" d="M5.8,1H4c0.1,1.7,0.4,2.8,1.4,3.5C4.5,5.2,4.2,6.3,4,8h1.7c0.5-1.4,1.5-2.5,2.6-2.9V3.9C7.3,3.5,6.2,2.4,5.8,1z
	 M4.3,3.9C3.2,3.5,2.2,2.4,1.7,1H0c0.1,1.7,0.4,2.8,1.4,3.5C0.4,5.2,0.1,6.3,0,8h1.7c0.5-1.4,1.5-2.5,2.6-2.9V3.9z M9.8,7.4l6.7-3
	V4.3l-6.7-3V7.4z M27.4,2.7c0-0.2,0.4-0.4,1-0.4c0.9,0,2.2,0.2,3.6,0.7l1.3-1.9C32.4,0.6,30.5,0,28.1,0c-3.4,0-5.2,1.3-5.2,2.9
	c0,3.2,6.2,2.6,6.2,3.4c0,0.2-0.4,0.4-1.2,0.4c-1.1,0-2.6-0.3-4.2-0.9l-1.2,2C23.8,8.5,25.9,9,27.9,9c3.8,0,5.5-1.2,5.5-3.1
	C33.4,2.8,27.4,3.6,27.4,2.7z M39.5,0c-3.6,0-5.7,2-5.7,4.4v0.2C33.8,7,35.9,9,39.5,9c3.6,0,5.7-2,5.7-4.4V4.4C45.2,2,43.1,0,39.5,0
	z M40.7,4.6c0,0.9-0.2,1.8-1.2,1.8c-1,0-1.2-0.9-1.2-1.8V4.4c0-0.9,0.2-1.8,1.2-1.8c1,0,1.2,0.9,1.2,1.8V4.6z M53,4.8
	c0,1-0.3,1.5-1.3,1.5s-1.4-0.5-1.4-1.5V0.3h-4.4v4.8c0,2.2,1.6,3.9,5.5,3.9c4,0,5.4-1.7,5.4-3.9V0.3H53V4.8z M64.9,3.6l-0.3-0.3
	l-3.1-2.9H58v8.4h3.9V5.4l0.3,0.4l2.9,2.9h3.7V0.3h-3.9V3.6z M85.7,4.9c0,0.7-0.3,1-1,1c-0.9,0-1.8-0.3-2.7-0.8l-1.2,2.5
	C82,8.5,83.7,9,85.5,9c3,0,4.6-1.4,4.6-3.7V0.3h-4.4V4.9z M91.2,8.7h9.6V5.8h-5.2V5.1h3.3V3.8h-3.3V3h5.2V0.3h-9.6V8.7z M101.3,0.3
	v2.9h3.1v5.5h4.4V3.2h3.1V0.3H101.3z M81,4.4c0-2.3-2-4.1-5.7-4.1h-5.4v8.4h5.4C79,8.7,81,6.8,81,4.6V4.4z M77.9,4.5l-4.9,2V2.3
	l4.9,2V4.5z"/>
</svg>
